HIERARCHY
ROOT Hips
{
  OFFSET 48.6783 100.573 11.2207
  CHANNELS 6 Xposition Yposition Zposition Zrotation Xrotation Yrotation
  JOINT spine
  {
    OFFSET 0 8.81705 0.507024
    CHANNELS 3 Zrotation Xrotation Yrotation
    JOINT spine1
    {
      OFFSET 0 10.7766 0
      CHANNELS 3 Zrotation Xrotation Yrotation
      JOINT spine2
      {
        OFFSET 0 10.3259 0
        CHANNELS 3 Zrotation Xrotation Yrotation
        JOINT Neck
        {
          OFFSET 0 26.511 1.26395
          CHANNELS 3 Zrotation Xrotation Yrotation
          JOINT Head
          {
            OFFSET 0 8.00966 0
            CHANNELS 3 Zrotation Xrotation Yrotation
            End Site
            {
              OFFSET 0 19.3879 -6.39386
            }
          }
        }
        JOINT RightShoulder
        {
          OFFSET -4.34795 11.1512 -0.605422
          CHANNELS 3 Zrotation Xrotation Yrotation
          JOINT RightArm
          {
            OFFSET 0 14.6258 0
            CHANNELS 3 Zrotation Xrotation Yrotation
            JOINT RightArmRoll
            {
              OFFSET 0 7.3834 0
              CHANNELS 3 Zrotation Xrotation Yrotation
              JOINT RightForeArm
              {
                OFFSET 0 21.5052 0
                CHANNELS 3 Zrotation Xrotation Yrotation
                JOINT RightForeArmRoll
                {
                  OFFSET 0 8.28532 0
                  CHANNELS 3 Zrotation Xrotation Yrotation
                  JOINT RightHand
                  {
                    OFFSET 0 16.6268 0
                    CHANNELS 3 Zrotation Xrotation Yrotation
                    End Site
                    {
                      OFFSET 0 0 0
                    }
                  }
                }
              }
            }
          }
        }
        JOINT LeftShoulder
        {
          OFFSET 4.34795 11.1512 -0.605422
          CHANNELS 3 Zrotation Xrotation Yrotation
          JOINT LeftArm
          {
            OFFSET 0 14.6258 0
            CHANNELS 3 Zrotation Xrotation Yrotation
            JOINT LeftArmRoll
            {
              OFFSET 0 7.3834 0
              CHANNELS 3 Zrotation Xrotation Yrotation
              JOINT LeftForeArm
              {
                OFFSET 0 21.5052 0
                CHANNELS 3 Zrotation Xrotation Yrotation
                JOINT LeftForeArmRoll
                {
                  OFFSET 0 8.28532 0
                  CHANNELS 3 Zrotation Xrotation Yrotation
                  JOINT LeftHand
                  {
                    OFFSET 0 16.6268 0
                    CHANNELS 3 Zrotation Xrotation Yrotation
                    End Site
                    {
                      OFFSET 0 0 0
                    }
                  }
                }
              }
            }
          }
        }
      }
    }
  }
  JOINT RightUpLeg
  {
    OFFSET -7.8151 -1.43309 -1.20217
    CHANNELS 3 Zrotation Xrotation Yrotation
    JOINT RightUpLegRoll
    {
      OFFSET 0 19.4959 0
      CHANNELS 3 Zrotation Xrotation Yrotation
      JOINT RightLeg
      {
        OFFSET 0 -24.1427 0
        CHANNELS 3 Zrotation Xrotation Yrotation
        JOINT RightLegRoll
        {
          OFFSET 0 24.2217 0
          CHANNELS 3 Zrotation Xrotation Yrotation
          JOINT RightFoot
          {
            OFFSET 0 20.1605 0
            CHANNELS 3 Zrotation Xrotation Yrotation
            JOINT RightToeBase
            {
              OFFSET 0 16.8532 0
              CHANNELS 3 Zrotation Xrotation Yrotation
              End Site
              {
                OFFSET 0.00714343 8.16187 -0.94078
              }
            }
          }
        }
      }
    }
  }
  JOINT LeftUpLeg
  {
    OFFSET 7.8151 -1.43309 -1.20217
    CHANNELS 3 Zrotation Xrotation Yrotation
    JOINT LeftUpLegRoll
    {
      OFFSET 0 19.496 0
      CHANNELS 3 Zrotation Xrotation Yrotation
      JOINT LeftLeg
      {
        OFFSET 0 24.1426 0
        CHANNELS 3 Zrotation Xrotation Yrotation
        JOINT LeftLegRoll
        {
          OFFSET 0 24.4456 0
          CHANNELS 3 Zrotation Xrotation Yrotation
          JOINT LeftFoot
          {
            OFFSET 0 19.9366 0
            CHANNELS 3 Zrotation Xrotation Yrotation
            JOINT LeftToeBase
            {
              OFFSET 0 16.8532 0
              CHANNELS 3 Zrotation Xrotation Yrotation
              End Site
              {
                OFFSET -0.0320138 8.16186 -0.940781
              }
            }
          }
        }
      }
    }
  }
}
MOTION
Frames: 5
Frame Time: 0.00208333
46.0549 100.172 9.84852 -0.755622 2.97783 11.9069 -0.121266 -1.1315 0.613127 -0.237513 1.73863 1.23907 -0.252604 3.38353 1.24385 -39.2374 1.61702 -1.00797 26.2332 8.44715 -6.04517 21.2293 3.48183 10.1514 80.549 65.1136 29.5751 1.98139e-006 2.58806e-006 2.31069e-006 1.04111 22.9593 -1.10694 6.58071e-006 7.41369e-007 -3.00355 8.02911 -4.95143 0.697688 -71.2588 -17.0649 9.71749 -86.9682 31.7373 51.2327 -5.71357e-006 3.13011e-006 -3.62749e-008 139.259 67.8394 -114.577 1.70222e-005 -2.51718e-008 3.00013 -8.02886 -4.95141 -0.697663 -178.593 5.4226 -2.87469 180 7.0157e-015 179.029 179.076 7.47263 179.671 -3.00586e-007 -2.57474e-006 0.161381 -20.072 68.7456 20.1936 8.14251 25.2346 -3.48707 -174.199 11.5156 0.585686 4.54188e-006 -4.6773e-006 -0.967447 -2.20569 -14.3458 0.245526 -4.23967e-007 -5.90834e-006 -0.208676 18.9839 68.4752 -19.9254 -8.14038 25.4277 3.22414 
46.0966 100.184 9.86829 -0.717394 2.94288 11.6886 -0.11584 -1.14961 0.609256 -0.226499 1.70249 1.2307 -0.241477 3.34739 1.23528 -38.9439 1.65773 -0.90019 25.9682 8.38604 -5.89649 21.5061 3.4861 10.0756 80.7578 65.1234 28.9633 1.98139e-006 2.58806e-006 2.31069e-006 1.35566 23.4499 -1.20262 6.58071e-006 7.41369e-007 -3.00354 8.02911 -4.95143 0.697688 -71.1431 -17.0202 9.70404 -86.9971 32.0224 51.0891 -5.71357e-006 3.13011e-006 -3.62749e-008 139.219 67.9819 -114.697 1.70222e-005 -2.51718e-008 3.00013 -8.02886 -4.95141 -0.697663 -178.666 5.37441 -2.81637 180 7.0157e-015 179.03 179.044 7.43944 179.673 -3.00586e-007 -2.57474e-006 0.15786 -20.0329 68.7191 20.169 8.14251 25.2346 -3.48707 -174.244 11.4026 0.597489 4.54188e-006 -4.6773e-006 -0.969381 -2.22234 -14.3387 0.242409 -4.23967e-007 -5.90834e-006 -0.209529 19.0069 68.5027 -19.9494 -8.14207 25.4516 3.19228 
46.1282 100.188 9.906 -0.679362 2.90906 11.4675 -0.110342 -1.1679 0.605472 -0.215294 1.66598 1.22251 -0.23016 3.31088 1.22688 -38.6456 1.70199 -0.791376 25.6983 8.32088 -5.74659 21.7857 3.48892 9.99754 80.9663 65.1335 28.3453 1.98139e-006 2.58806e-006 2.31069e-006 1.67194 23.9437 -1.30122 6.58071e-006 7.41369e-007 -3.00354 8.02911 -4.95143 0.697688 -71.0254 -16.9733 9.6896 -87.0255 32.3069 50.9423 -5.71357e-006 3.13011e-006 -3.62749e-008 139.18 68.1261 -114.818 1.70222e-005 -2.51718e-008 3.00013 -8.02886 -4.95141 -0.697663 -178.74 5.32813 -2.75762 180 7.0157e-015 179.03 179.011 7.40604 179.675 -3.00586e-007 -2.57474e-006 0.154322 -19.9937 68.6922 20.1442 8.14251 25.2346 -3.48706 -174.29 11.2905 0.610397 4.54188e-006 -4.6773e-006 -0.971296 -2.23854 -14.3316 0.239329 -4.23967e-007 -5.90834e-006 -0.210416 19.0317 68.5322 -19.9752 -8.14379 25.4762 3.1594 
46.1657 100.192 9.92586 -0.641808 2.87638 11.2438 -0.104795 -1.18637 0.601685 -0.203954 1.62909 1.21431 -0.218708 3.274 1.21849 -38.342 1.7492 -0.681764 25.4236 8.25251 -5.59561 22.0678 3.49006 9.91728 81.1757 65.144 27.7211 1.98139e-006 2.58806e-006 2.31069e-006 1.98907 24.4408 -1.40252 6.58071e-006 7.41369e-007 -3.00353 8.02911 -4.95143 0.697688 -70.9051 -16.9247 9.67438 -87.0543 32.5911 50.7922 -5.71357e-006 3.13011e-006 -3.62749e-008 139.138 68.2729 -114.94 1.70222e-005 -2.51718e-008 3.00013 -8.02886 -4.95141 -0.697663 -178.814 5.28383 -2.69882 180 7.0157e-015 179.03 178.979 7.37247 179.678 -3.00586e-007 -2.57474e-006 0.150769 -19.954 68.6648 20.1191 8.14251 25.2346 -3.48706 -174.337 11.1796 0.623877 4.54188e-006 -4.6773e-006 -0.97319 -2.25452 -14.3248 0.236263 -4.23967e-007 -5.90834e-006 -0.21133 19.058 68.5635 -20.0027 -8.14551 25.5013 3.12597 
46.213 100.197 9.92064 -0.605013 2.84485 11.0179 -0.0992226 -1.20504 0.597809 -0.192536 1.59183 1.20595 -0.207175 3.23674 1.20992 -38.0325 1.79878 -0.571594 25.1442 8.18174 -5.44367 22.352 3.48927 9.83472 81.3872 65.1553 27.0902 1.98139e-006 2.58806e-006 2.31069e-006 2.30619 24.9413 -1.50626 6.58071e-006 7.41369e-007 -3.00353 8.02911 -4.95143 0.697688 -70.7812 -16.8745 9.65858 -87.0844 32.8752 50.6385 -5.71357e-006 3.13011e-006 -3.62749e-008 139.094 68.4231 -115.062 1.70222e-005 -2.51718e-008 3.00013 -8.02886 -4.95141 -0.697663 -178.888 5.24156 -2.64038 180 7.0157e-015 179.03 178.946 7.33872 179.68 -3.00586e-007 -2.57474e-006 0.147203 -19.9136 68.6367 20.0933 8.14251 25.2346 -3.48705 -174.384 11.0701 0.6374 4.54188e-006 -4.6773e-006 -0.975059 -2.27051 -14.3185 0.233185 -4.23967e-007 -5.90834e-006 -0.212263 19.0856 68.5963 -20.0316 -8.14721 25.5264 3.09242 
